<svg id="a3f9a4c6-148f-4cff-9a9c-6c7f1a5a3737" data-name="Шар 1" xmlns="http://www.w3.org/2000/svg" xmlns:xlink="http://www.w3.org/1999/xlink" width="183.55" height="226.09" viewBox="0 0 183.55 226.09"><defs><style>.e98e1793-5c21-4c92-b6af-075ff88d76ae{fill:url(#ac02bf1e-216e-4d05-a7a2-d1e668114c85);}.aa540a1a-32f8-4b09-b963-f09323e8a493{fill:url(#a08877f2-be16-4576-89ac-99f28f0b45ae);}.fbc549ff-c801-4430-89fb-0753e828a441{fill:#1d1a1a;}.a18b8d2c-c944-4b96-971b-81c7344d7b02{fill:none;stroke-miterlimit:10;stroke-width:6px;stroke:url(#a254f168-b848-4dcb-8432-981401759873);}.a2cd1a10-132b-4e35-b0d6-727eddc8187c{fill:url(#f18b6c74-144d-4047-be62-cc6c7f8d7633);}</style><linearGradient id="ac02bf1e-216e-4d05-a7a2-d1e668114c85" x1="186.475" y1="308.86" x2="186.475" y2="370.2" gradientTransform="matrix(1, 0, 0, -1, 0, 791)" gradientUnits="userSpaceOnUse"><stop offset="0.1231" stop-color="#006bc6"/><stop offset="0.3968" stop-color="#0079cb"/><stop offset="0.9138" stop-color="#009ed9"/><stop offset="1" stop-color="#00a5dc"/></linearGradient><linearGradient id="a08877f2-be16-4576-89ac-99f28f0b45ae" x1="225.515" y1="308.86" x2="225.515" y2="370.2" xlink:href="#ac02bf1e-216e-4d05-a7a2-d1e668114c85"/><linearGradient id="a254f168-b848-4dcb-8432-981401759873" x1="97.1553" y1="524.8647" x2="236.1347" y2="284.1453" gradientTransform="matrix(1, 0, 0, -1, 0, 791)" gradientUnits="userSpaceOnUse"><stop offset="0.1333" stop-color="#005dbe"/><stop offset="0.2617" stop-color="#005fbf"/><stop offset="0.308" stop-color="#0066c1"/><stop offset="0.341" stop-color="#0071c6"/><stop offset="0.3676" stop-color="#0082cd"/><stop offset="0.3902" stop-color="#0098d5"/><stop offset="0.4077" stop-color="#00afde"/><stop offset="0.5217" stop-color="#00a9dc"/><stop offset="0.6704" stop-color="#0099d5"/><stop offset="0.8374" stop-color="#007ecb"/><stop offset="1" stop-color="#005dbe"/></linearGradient><linearGradient id="f18b6c74-144d-4047-be62-cc6c7f8d7633" x1="145.8" y1="307.58" x2="145.8" y2="368.92" xlink:href="#ac02bf1e-216e-4d05-a7a2-d1e668114c85"/></defs><path class="e98e1793-5c21-4c92-b6af-075ff88d76ae" d="M190.84,445.6V432.37h-8.76v8.24H170.43V428.69l8.59-7.89h14.9l8.59,7.89v16.12l-6.75,6.13,7.89,6.31V473.2l-9.29,8.94H178.59l-9.29-8.94V462.42h12.79v8.15h8.76V457.16H180.6V445.6Z" transform="translate(-74.87 -273.45)"/><path class="aa540a1a-32f8-4b09-b963-f09323e8a493" d="M241.99,452.69l-9.29,8.94H221.83v20.51H209.04V420.8H232.7l9.29,8.94v22.95Zm-20.16-20.33v17.7h7.36v-17.7Z" transform="translate(-74.87 -273.45)"/><polygon class="fbc549ff-c801-4430-89fb-0753e828a441" points="5.01 152.61 77.6 80.01 85.39 80.01 95.19 70.22 74 49.03 74 24.75 103.69 54.43 113.27 44.85 84.01 15.58 110.76 15.58 167.35 72.16 154.1 85.41 131.74 63.06 122.07 72.73 144.42 95.09 132.37 107.14 106.99 81.77 97.32 91.44 97.32 99.61 5.32 191.61 5.01 152.61"/><path class="a18b8d2c-c944-4b96-971b-81c7344d7b02" d="M245.28,496.54H88.01A10.14,10.14,0,0,1,77.87,486.4V286.59a10.14,10.14,0,0,1,10.14-10.14H245.28a10.14,10.14,0,0,1,10.14,10.14V486.4A10.14,10.14,0,0,1,245.28,496.54Z" transform="translate(-74.87 -273.45)"/><path class="a2cd1a10-132b-4e35-b0d6-727eddc8187c" d="M138.25,422.08l-8.86,8.86v52.48h11.5V463.04h7.9v20.38h13.42V422.08Zm10.64,29.39h-7.84V433.1h7.84Z" transform="translate(-74.87 -273.45)"/></svg>