<svg id="b6d3ffc0-528b-4118-b868-3401f28250ea" data-name="Шар 1" xmlns="http://www.w3.org/2000/svg" xmlns:xlink="http://www.w3.org/1999/xlink" width="173.75mm" height="80.48mm" viewBox="0 0 492.52 228.12">
  <defs>
    <linearGradient id="b68737ff-89d7-46d4-802e-188ef652c76a" data-name="Градієнт без назви 48" x1="184.96" y1="482.14" x2="184.96" y2="420.8" gradientUnits="userSpaceOnUse">
      <stop offset="0.12" stop-color="#006bc6"/>
      <stop offset="0.4" stop-color="#0079cb"/>
      <stop offset="0.91" stop-color="#009ed9"/>
      <stop offset="1" stop-color="#00a5dc"/>
    </linearGradient>
    <linearGradient id="b95d72ad-3373-4a50-bcd3-98caf20e4654" x1="224.86" y1="482.14" x2="224.86" y2="420.8" xlink:href="#b68737ff-89d7-46d4-802e-188ef652c76a"/>
    <linearGradient id="aa962c32-dbc1-4d56-be4d-77454cd457e8" data-name="Градієнт без назви 37" x1="24.25" y1="-8.02" x2="165.21" y2="236.14" gradientUnits="userSpaceOnUse">
      <stop offset="0.13" stop-color="#005dbe"/>
      <stop offset="0.26" stop-color="#005fbf"/>
      <stop offset="0.31" stop-color="#0066c1"/>
      <stop offset="0.34" stop-color="#0071c6"/>
      <stop offset="0.37" stop-color="#0082cd"/>
      <stop offset="0.39" stop-color="#005dbe"/>
      <stop offset="0.41" stop-color="#00afde"/>
      <stop offset="0.52" stop-color="#00a9dc"/>
      <stop offset="0.67" stop-color="#0099d5"/>
      <stop offset="0.84" stop-color="#007ecb"/>
      <stop offset="1" stop-color="#005dbe"/>
    </linearGradient>
    <linearGradient id="f901ac82-abd6-4afd-8bd3-0634cb5e8c3c" x1="143.42" y1="483.42" x2="143.42" y2="422.08" xlink:href="#b68737ff-89d7-46d4-802e-188ef652c76a"/>
  </defs>
  <title>logo</title>
  <rect x="6.07" y="4.02" width="176.92" height="216.48" fill="#fff" stroke="#3e6584" stroke-miterlimit="10" stroke-width="0.75"/>
  <g>
    <path d="M316.31,324.09H307.1l-.91-7.07h-7l-.79,7.07h-9.21L295.11,286h14.3Zm-13.15-30.84h-1L300,309.84h5.21Z" transform="translate(-69.98 -272.44)" fill="#fff" stroke="#3e6584" stroke-miterlimit="10"/>
    <path d="M334.43,286l5.94,4.89v10l-4.67,3.81,5.45,3.92v9.9l-6.42,5.54H317.4V286Zm-8.18,7.18v8.21h6.06V293.2Zm0,15.39v8.32h6.06v-8.32Z" transform="translate(-69.98 -272.44)" fill="#fff" stroke="#3e6584" stroke-miterlimit="10"/>
    <path d="M364.18,293.2h-6.06v30.89h-8.85V293.2h-6.06V286h21Z" transform="translate(-69.98 -272.44)" fill="#fff" stroke="#3e6584" stroke-miterlimit="10"/>
    <path d="M389.32,318.55l-6.42,5.54H372l-6.42-5.54v-27L372,286H382.9l6.42,5.54Zm-14.9-25.35v23.71h6.06V293.2Z" transform="translate(-69.98 -272.44)" fill="#fff" stroke="#3e6584" stroke-miterlimit="10"/>
    <path d="M424,324.09h-8.85V300.65H415l-4.3,23.44h-3.63l-4.31-23.44h-.12v23.44h-8.84V286h11.33l3.45,17.46h.85L412.65,286H424Z" transform="translate(-69.98 -272.44)" fill="#fff" stroke="#3e6584" stroke-miterlimit="10"/>
    <path d="M452.21,318.55l-6.42,5.54H434.88l-6.42-5.54v-27l6.42-5.54h10.91l6.42,5.54Zm-14.9-25.35v23.71h6.06V293.2Z" transform="translate(-69.98 -272.44)" fill="#fff" stroke="#3e6584" stroke-miterlimit="10"/>
    <path d="M478.27,293.2H465.54v8.21H474l6.42,5.55v11.59L474,324.09H456.7V286h21.57Zm-12.73,23.71h6.06v-8.32h-6.06Z" transform="translate(-69.98 -272.44)" fill="#fff" stroke="#3e6584" stroke-miterlimit="10"/>
    <path d="M493.66,286v19.63h.12l7-19.63h7.69v38.07H499.6V304.46h-.13l-7,19.63h-7.7V286Z" transform="translate(-69.98 -272.44)" fill="#fff" stroke="#3e6584" stroke-miterlimit="10"/>
    <path d="M522.92,293.2l-3.33,30.89h-9.45l4.24-32.74L520.8,286h13.09v38.07H525V293.2Z" transform="translate(-69.98 -272.44)" fill="#fff" stroke="#3e6584" stroke-miterlimit="10"/>
    <path d="M547.22,286v19.63h.12l7-19.63H562v38.07h-8.84V304.46H553l-7,19.63h-7.7V286Z" transform="translate(-69.98 -272.44)" fill="#fff" stroke="#3e6584" stroke-miterlimit="10"/>
  </g>
  <g>
    <path d="M304.52,354.15v-8.21h-6.06v5.11H290.4v-7.4l5.94-4.89h10.3l5.94,4.89v10l-4.67,3.81,5.46,3.92v9.9l-6.43,5.55H296l-6.42-5.55V364.6h8.84v5.06h6.06v-8.33h-7.09v-7.18Z" transform="translate(-69.98 -272.44)" fill="#fff" stroke="#3e6584" stroke-miterlimit="10"/>
    <path d="M341.48,376.84h-9.21l-.91-7.08h-7l-.79,7.08h-9.2l5.93-38.08h14.3ZM328.33,346h-1l-2.18,16.59h5.21Z" transform="translate(-69.98 -272.44)" fill="#fff" stroke="#3e6584" stroke-miterlimit="10"/>
    <path d="M351.42,345.94v30.9h-8.85V338.76h23.75v38.08h-8.85v-30.9Z" transform="translate(-69.98 -272.44)" fill="#fff" stroke="#3e6584" stroke-miterlimit="10"/>
    <path d="M384.38,338.76h8.84v38.08h-8.84V362.47H375.9l-6.43-5.54V338.76h8.85v16.53h6.06Z" transform="translate(-69.98 -272.44)" fill="#fff" stroke="#3e6584" stroke-miterlimit="10"/>
    <path d="M421.46,376.84h-9.21l-.91-7.08h-7l-.79,7.08h-9.21l5.94-38.08h14.3ZM408.31,346h-1l-2.18,16.59h5.21Z" transform="translate(-69.98 -272.44)" fill="#fff" stroke="#3e6584" stroke-miterlimit="10"/>
    <path d="M446.3,353.34h-8.85v-7.4h-6.06v23.72h6.06v-9.09h8.85v10.72l-6.42,5.55H429l-6.42-5.55v-27l6.42-5.54h10.91l6.42,5.54Z" transform="translate(-69.98 -272.44)" fill="#fff" stroke="#3e6584" stroke-miterlimit="10"/>
    <path d="M469.32,345.94h-6.06v30.9h-8.84v-30.9h-6.06v-7.18h21Z" transform="translate(-69.98 -272.44)" fill="#fff" stroke="#3e6584" stroke-miterlimit="10"/>
    <path d="M480.35,338.76v19.63h.12l7-19.63h7.69v38.08h-8.84V357.2h-.12l-7,19.64h-7.7V338.76Z" transform="translate(-69.98 -272.44)" fill="#fff" stroke="#3e6584" stroke-miterlimit="10"/>
  </g>
  <g>
    <path d="M313.09,412l-6.42,5.55h-7.51v12.73h-8.85V392.2h16.36l6.42,5.55Zm-13.93-12.62v11h5.09v-11Z" transform="translate(-69.98 -272.44)" fill="#fff" stroke="#3e6584" stroke-miterlimit="10"/>
    <path d="M334.54,399.38h-9.93v7.18H333v7.18h-8.42v9.36h9.93v7.18H315.76V392.2h18.78Z" transform="translate(-69.98 -272.44)" fill="#fff" stroke="#3e6584" stroke-miterlimit="10"/>
    <path d="M367.38,430.28h-8.84V406.83h-.12l-4.31,23.45h-3.63l-4.3-23.45h-.12v23.45h-8.85V392.2h11.33L352,409.66h.85l3.21-17.46h11.33Z" transform="translate(-69.98 -272.44)" fill="#fff" stroke="#3e6584" stroke-miterlimit="10"/>
    <path d="M395.62,424.73l-6.43,5.55h-10.9l-6.43-5.55v-27l6.43-5.55h10.9l6.43,5.55Zm-14.91-25.35V423.1h6.06V399.38Z" transform="translate(-69.98 -272.44)" fill="#fff" stroke="#3e6584" stroke-miterlimit="10"/>
    <path d="M423.85,430.28H415V414.83H409v15.45H400.1V392.2H409v15.45H415V392.2h8.84Z" transform="translate(-69.98 -272.44)" fill="#fff" stroke="#3e6584" stroke-miterlimit="10"/>
    <path d="M447,399.38h-6.06v30.9h-8.85v-30.9H426V392.2h21Z" transform="translate(-69.98 -272.44)" fill="#fff" stroke="#3e6584" stroke-miterlimit="10"/>
  </g>
  <path d="M189.43,445.6V432.36h-9v8.24H168.57V428.68l8.78-7.88h15.22l8.77,7.88v16.13l-6.89,6.13,8.06,6.31V473.2L193,482.14H176.9l-9.49-8.94V462.42h13.07v8.15h9V457.16H179V445.6Z" transform="translate(-69.98 -272.44)" fill="url(#b68737ff-89d7-46d4-802e-188ef652c76a)"/>
  <path d="M241.69,452.69l-9.49,8.94H221.1v20.51H208V420.8H232.2l9.49,8.94ZM221.1,432.36v17.71h7.52V432.36Z" transform="translate(-69.98 -272.44)" fill="url(#b95d72ad-3373-4a50-bcd3-98caf20e4654)"/>
  <polygon points="6.07 153.63 80.25 81.03 88.21 81.03 98.22 71.23 76.57 50.05 76.57 25.76 106.9 55.45 116.7 45.86 86.8 16.59 114.13 16.59 171.95 73.18 158.41 86.43 135.56 64.07 125.68 73.74 148.53 96.1 136.21 108.16 110.28 82.79 100.4 92.46 100.4 100.62 6.39 192.63 6.07 153.63" fill="#1d1a1a"/>
  <rect x="4.02" y="4.02" width="181.42" height="220.08" rx="10.14" fill="none" stroke-miterlimit="10" stroke-width="8.04" stroke="url(#aa962c32-dbc1-4d56-be4d-77454cd457e8)"/>
  <path d="M135.7,422.08l-9,8.86v52.48H138.4V463.05h8.07v20.37h13.71V422.08Zm10.87,29.39h-8V433.1h8Z" transform="translate(-69.98 -272.44)" fill="url(#f901ac82-abd6-4afd-8bd3-0634cb5e8c3c)"/>
</svg>
