<?xml version="1.0" standalone="no"?>
<!DOCTYPE svg PUBLIC "-//W3C//DTD SVG 20010904//EN"
 "http://www.w3.org/TR/2001/REC-SVG-20010904/DTD/svg10.dtd">
<svg version="1.0" xmlns="http://www.w3.org/2000/svg"
 width="512.000000pt" height="512.000000pt" viewBox="0 0 512.000000 512.000000"
 preserveAspectRatio="xMidYMid meet">
<metadata>
Created by potrace 1.14, written by Peter Selinger 2001-2017
</metadata>
<g transform="translate(0.000000,512.000000) scale(0.100000,-0.100000)"
fill="#000000" stroke="none">
<path d="M428 5100 c-164 -47 -304 -166 -373 -315 -58 -129 -55 19 -52 -2245
l2 -2075 23 -65 c68 -187 217 -329 402 -379 74 -21 88 -21 2130 -21 1836 0
2061 2 2115 16 168 44 311 159 384 308 65 134 61 -30 58 2256 l-2 2075 -23 65
c-64 178 -194 308 -372 372 l-65 23 -2080 2 c-2018 2 -2082 1 -2147 -17z
m4233 -238 c104 -41 179 -127 212 -239 14 -47 16 -271 14 -2075 -2 -1113 -6
-2034 -10 -2047 -29 -104 -117 -204 -212 -242 l-60 -24 -2028 -1 c-1639 -1
-2038 1 -2078 11 -107 29 -199 110 -241 214 l-23 56 0 2045 0 2045 23 57 c40
99 148 195 241 213 13 2 26 6 28 9 2 2 921 3 2041 2 l2037 -1 56 -23z"/>
<path d="M2867 4200 c198 -198 366 -366 372 -374 10 -12 -3 -29 -70 -95 -45
-45 -85 -81 -88 -81 -3 0 -173 167 -376 370 -203 204 -373 370 -376 370 -3 0
-6 -167 -6 -370 l0 -370 229 -233 c125 -127 228 -237 228 -243 0 -6 -13 -29
-28 -50 -39 -54 -129 -98 -183 -89 -75 13 -94 2 -254 -155 -82 -82 -220 -217
-305 -300 -301 -295 -1026 -1008 -1261 -1240 -254 -251 -243 -236 -274 -374
-34 -152 13 -300 123 -383 80 -61 219 -83 341 -53 51 12 64 23 315 270 143
142 331 326 416 410 85 84 355 349 600 590 245 241 501 493 570 560 69 67 133
134 142 149 20 29 23 82 8 111 -7 13 -2 33 23 81 25 50 42 70 80 93 l48 30
297 -297 c163 -163 301 -297 306 -297 5 0 92 84 194 186 l185 185 -256 257
c-141 142 -257 260 -257 264 0 3 37 43 81 87 66 67 84 79 96 70 8 -7 123 -122
257 -256 134 -133 246 -243 250 -243 4 0 93 86 199 190 l191 191 -699 699
-700 700 -389 0 -389 0 360 -360z m1009 -359 c346 -346 640 -641 653 -655 l24
-26 -126 -125 c-69 -69 -129 -125 -133 -125 -4 0 -122 115 -262 256 l-255 256
-151 -151 -151 -151 259 -259 259 -259 -124 -126 -125 -125 -289 290 c-160
159 -294 289 -298 289 -22 0 -146 -78 -178 -112 -22 -23 -49 -70 -68 -119 -29
-73 -30 -81 -16 -102 8 -12 15 -26 15 -31 0 -5 -69 -77 -152 -159 -84 -82
-360 -353 -613 -602 -253 -249 -530 -521 -615 -605 -85 -83 -253 -248 -372
-366 -119 -118 -220 -214 -225 -215 -4 0 -17 -3 -28 -5 -59 -13 -153 -6 -203
16 -130 56 -176 191 -126 370 16 59 17 60 441 477 234 230 483 474 553 543 70
69 309 303 530 520 221 217 407 398 413 402 14 9 49 0 59 -15 4 -7 39 4 95 29
102 45 153 91 200 179 l32 61 -244 246 -245 247 1 240 c1 133 4 241 8 241 3 0
153 -147 333 -327 l328 -328 151 151 151 151 -327 326 -327 327 260 0 260 0
628 -629z"/>
</g>
</svg>
