<svg id="Слой_1" data-name="Слой 1" xmlns="http://www.w3.org/2000/svg" xmlns:xlink="http://www.w3.org/1999/xlink" viewBox="0 0 48.59 48.59"><defs><style>.cls-1{fill:url(#Безымянный_градиент_2);}</style><linearGradient id="Безымянный_градиент_2" x1="-814.16" y1="495.54" x2="-814.16" y2="501.61" gradientTransform="matrix(8, 0, 0, -8, 6538, 4014)" gradientUnits="userSpaceOnUse"><stop offset="0" stop-color="#9f2fff"/><stop offset="1" stop-color="#0bb1d3"/></linearGradient></defs><path class="cls-1" d="M24.71,19.91a7.06,7.06,0,1,0-7.06-7.06A7.06,7.06,0,0,0,24.71,19.91Zm0-12.54a5.49,5.49,0,1,1-5.49,5.48A5.49,5.49,0,0,1,24.71,7.37Zm.78,6.27H23.92V12.07h1.57Zm3.13,0H27.06V12.07h1.56Zm-6.26,0H20.79V12.07h1.57ZM42.73,49.69H49V18.34H35A11.66,11.66,0,0,0,24.8,1.1h-.18A11.66,11.66,0,0,0,14.37,18.34H.41V49.69H42.73Zm4.7-29.78V34h-4.7V19.91ZM22.84,31.43a2.22,2.22,0,0,0,3.73,0l7.5-11.52h.82V34H14.52V26.18h4.9ZM24.62,2.67h.18a10.1,10.1,0,0,1,8.46,15.6l-8,12.31a.69.69,0,0,1-1.11,0l-8-12.31a10.1,10.1,0,0,1,8.47-15.6ZM15.35,19.91l3,4.7H13v11H36.46V19.91h4.7V35.58h6.27v4.7H45.87v1.57h1.56v6.27h-4.7V41.85H44.3V40.28H41.16v7.84h-4.7V40.28H13v7.84H8.25V40.28H2v-4.7H8.25v-11H5.12v1.57H6.68V34H2V26.18H3.55V24.61H2v-4.7ZM2,41.85h4.7v6.27H2Zm12.54,6.27V41.85H34.89v6.27Z" transform="translate(-0.41 -1.1)"/></svg>