<svg id="Слой_1" data-name="Слой 1" xmlns="http://www.w3.org/2000/svg" xmlns:xlink="http://www.w3.org/1999/xlink" viewBox="0 0 70 70"><defs><style>.cls-1{fill:url(#Безымянный_градиент_6);}</style><linearGradient id="Безымянный_градиент_6" x1="-806.75" y1="511.67" x2="-801.73" y2="502.97" gradientTransform="matrix(8, 0, 0, -8, 6468, 4104)" gradientUnits="userSpaceOnUse"><stop offset="0" stop-color="#005dbe"/><stop offset="1" stop-color="#0bb1d3"/></linearGradient></defs><path class="cls-1" d="M35.66,27.85A10.16,10.16,0,1,0,25.5,17.69,10.17,10.17,0,0,0,35.66,27.85Zm0-18.06a7.9,7.9,0,1,1-7.9,7.9A7.91,7.91,0,0,1,35.66,9.79Zm1.13,9H34.53V16.56h2.26Zm4.52,0H39.05V16.56h2.26Zm-9,0H30V16.56h2.26ZM61.63,70.75h9V25.59H50.55A16.8,16.8,0,0,0,35.79.75h-.26a16.83,16.83,0,0,0-16.8,16.81,16.65,16.65,0,0,0,2.05,8H.66V70.75h61Zm6.77-42.9V48.17H61.63V27.85ZM33,44.46a3.21,3.21,0,0,0,5.38,0l10.8-16.61h1.19V48.17H21V36.88h7.06ZM35.53,3h.26A14.55,14.55,0,0,1,48,25.49L36.46,43.22a1,1,0,0,1-1.59,0L23.34,25.49A14.55,14.55,0,0,1,35.53,3ZM22.18,27.85l4.4,6.77H18.73V50.43H52.6V27.85h6.77V50.43h9v6.78H66.15v2.25H68.4v9H61.63v-9h2.26V57.21H59.37V68.5H52.6V57.21H18.73V68.5H12V57.21h-9V50.43h9V34.62H7.44v2.26H9.7V48.17H2.92V36.88H5.18V34.62H2.92V27.85ZM2.92,59.46H9.7v9H2.92ZM21,68.5v-9H50.34v9Z" transform="translate(-0.66 -0.75)"/></svg>