<svg id="Слой_1" data-name="Слой 1" xmlns="http://www.w3.org/2000/svg" xmlns:xlink="http://www.w3.org/1999/xlink" viewBox="0 0 71 71.01"><defs><style>.cls-1{fill:none;stroke-miterlimit:10;stroke:url(#Безымянный_градиент_3);}</style><linearGradient id="Безымянный_градиент_3" x1="7.93" y1="-1.98" x2="46.84" y2="65.41" gradientUnits="userSpaceOnUse"><stop offset="0.13" stop-color="#005dbe"/><stop offset="0.26" stop-color="#005fbf"/><stop offset="0.31" stop-color="#0066c1"/><stop offset="0.34" stop-color="#0071c6"/><stop offset="0.37" stop-color="#0082cd"/><stop offset="0.39" stop-color="#0098d5"/><stop offset="0.41" stop-color="#00afde"/><stop offset="0.52" stop-color="#00a9dc"/><stop offset="0.67" stop-color="#0099d5"/><stop offset="0.84" stop-color="#007ecb"/><stop offset="1" stop-color="#005dbe"/></linearGradient></defs><path class="cls-1" d="M24.9,7.53h-9V5.27h9Zm4.52-2.26H27.16V7.53h2.26Zm-15.81,0H11.35V7.53h2.26Zm3.38,61h6.78V64H17ZM.06,65.11V6.4A5.65,5.65,0,0,1,5.7.75H35.06A5.66,5.66,0,0,1,40.71,6.4V18a5.4,5.4,0,0,1,2.07,1.31l4.62,4.61a4.12,4.12,0,0,1-.1,5.93L45,32a2.86,2.86,0,0,0-.07,4.12l2.18,2.17a3,3,0,0,0,4.12-.06l2.16-2.31a4.16,4.16,0,0,1,3-1.31,4.11,4.11,0,0,1,2.92,1.21l4.62,4.62a5.48,5.48,0,0,1,.33,7.4l-2.38,2.86a8.65,8.65,0,0,1-11.17,1.83l-1.23-.76a56.11,56.11,0,0,1-7.17-5.25l1.47-1.71a53.89,53.89,0,0,0,6.88,5l1.24.76a6.37,6.37,0,0,0,8.25-1.35l.68-.81L52.5,40.11a5.08,5.08,0,0,1-7-.21l-2.17-2.18a5,5,0,0,1-.21-7L34.79,22.4l-.82.68a6.35,6.35,0,0,0-2.3,4.9,6.44,6.44,0,0,0,.87,3.31,53.73,53.73,0,0,0,7.85,10.33l.32.32V65.11a5.66,5.66,0,0,1-5.65,5.65H5.7A5.65,5.65,0,0,1,.06,65.11ZM55,37.47l-1,1,8.21,8.21.25-.3a3.27,3.27,0,0,0,.75-2.07,3.21,3.21,0,0,0-.95-2.29l-4.62-4.62A1.91,1.91,0,0,0,55,37.47ZM38.45,65.11V61.72H2.32v3.39A3.39,3.39,0,0,0,5.7,68.5H35.06A3.39,3.39,0,0,0,38.45,65.11Zm0-22.25c-.78-.82-1.53-1.65-2.26-2.52V57.21H4.57V14.3H36.19v4.11a5.43,5.43,0,0,1,2.26-.7V12H2.32V59.47H38.45ZM33.93,20.17V16.56H6.83V55h27.1V37.48a55.12,55.12,0,0,1-3.34-5,8.8,8.8,0,0,1,1.93-11.09Zm2.9.53-.3.25,8.21,8.21,1-1a1.86,1.86,0,0,0,.59-1.37,1.84,1.84,0,0,0-.55-1.32l-4.61-4.62A3.32,3.32,0,0,0,36.83,20.7ZM2.32,6.4V9.78H38.45V6.4A3.39,3.39,0,0,0,35.06,3H5.7A3.39,3.39,0,0,0,2.32,6.4ZM64.83,19.53a10.19,10.19,0,0,1,0,14.38l1.6,1.59A12.42,12.42,0,1,0,48.86,17.94l1.6,1.59A10.18,10.18,0,0,1,64.83,19.53Zm-1.6,12.78A7.9,7.9,0,0,0,52.06,21.13l1.59,1.6a5.65,5.65,0,0,1,8,8ZM27.6,38.25a5.65,5.65,0,0,1,4.07,5.41V47H9.09V43.66a5.66,5.66,0,0,1,4.08-5.41L17,37.16v-.3a5.66,5.66,0,0,1-2.25-4.49V30.11a5.64,5.64,0,0,1,6.14-5.62A5.8,5.8,0,0,1,26,30.34v2a5.65,5.65,0,0,1-2.26,4.49v.3ZM27,40.42l-5.47-1.56V35.61l.56-.33a3.36,3.36,0,0,0,1.7-2.91v-2a3.55,3.55,0,0,0-3.08-3.61,3.39,3.39,0,0,0-2.6.88,3.43,3.43,0,0,0-1.1,2.5v2.26a3.36,3.36,0,0,0,1.7,2.91l.56.33v3.25l-5.46,1.56a3.38,3.38,0,0,0-2.44,3.24v1.13H29.42V43.66A3.39,3.39,0,0,0,27,40.42Z" transform="translate(0.44 -0.25)"/></svg>