<svg height="496pt" viewBox="0 -27 496 495" width="496pt" xmlns="http://www.w3.org/2000/svg" xmlns:xlink="http://www.w3.org/1999/xlink"><linearGradient id="a" gradientUnits="userSpaceOnUse" x1="248" x2="248" y1="440.5" y2=".5"><stop offset="0" stop-color="#9f2fff"/><stop offset="1" stop-color="#0bb1d3"/></linearGradient><path d="m141.664062 176.5h-93.664062v208h93.664062c20.984376 15.039062 46.609376 24 74.335938 24s53.351562-8.960938 74.335938-24h93.664062v-208h-93.664062c-20.984376-15.039062-46.609376-24-74.335938-24s-53.351562 8.960938-74.335938 24zm-77.664062 16h59.289062c-21.808593 22.960938-35.289062 53.902344-35.289062 88s13.480469 65.039062 35.289062 88h-59.289062zm40 88c0-61.761719 50.238281-112 112-112s112 50.238281 112 112-50.238281 112-112 112-112-50.238281-112-112zm264 88h-59.289062c21.808593-22.960938 35.289062-53.902344 35.289062-88s-13.480469-65.039062-35.289062-88h59.289062zm-56-88c0 22.40625-7.894531 44.214844-22.246094 61.425781l-12.28125-10.25c10.230469-12.273437 16.488282-27.367187 18.085938-43.167969h-23.558594v-16h23.59375c-3.769531-37.734374-33.859375-67.832031-71.59375-71.59375v23.585938h-16v-23.558594c-15.808594 1.597656-30.902344 7.855469-43.167969 18.085938l-10.246093-12.28125c17.199218-14.351563 39.007812-22.246094 61.414062-22.246094 52.9375 0 96 43.0625 96 96zm-44.832031 61.472656 10.246093 12.28125c-17.199218 14.351563-39.007812 22.246094-61.414062 22.246094-52.9375 0-96-43.0625-96-96 0-22.40625 7.894531-44.214844 22.246094-61.425781l12.28125 10.25c-10.230469 12.273437-16.488282 27.367187-18.085938 43.167969h23.558594v16h-23.59375c3.769531 37.734374 33.859375 67.832031 71.59375 71.59375v-23.585938h16v23.558594c15.808594-1.597656 30.902344-7.863282 43.167969-18.085938zm-43.167969-101.472656v32h16v16h-32v-48zm208 120h-16v64h-400v-288h400v48h16v-104c0-22.054688-17.945312-40-40-40h-32v-16c0-13.230469-10.769531-24-24-24s-24 10.769531-24 24v16h-32v-16c0-13.230469-10.769531-24-24-24s-24 10.769531-24 24v16h-32v-16c0-13.230469-10.769531-24-24-24s-24 10.769531-24 24v16h-32v-16c0-13.230469-10.769531-24-24-24s-24 10.769531-24 24v16h-32c-22.054688 0-40 17.945312-40 40v360h432zm-104-336c0-4.414062 3.585938-8 8-8s8 3.585938 8 8v48c0 4.414062-3.585938 8-8 8s-8-3.585938-8-8zm-80 0c0-4.414062 3.585938-8 8-8s8 3.585938 8 8v48c0 4.414062-3.585938 8-8 8s-8-3.585938-8-8zm-80 0c0-4.414062 3.585938-8 8-8s8 3.585938 8 8v48c0 4.414062-3.585938 8-8 8s-8-3.585938-8-8zm-80 0c0-4.414062 3.585938-8 8-8s8 3.585938 8 8v48c0 4.414062-3.585938 8-8 8s-8-3.585938-8-8zm-48 32h32v16c0 13.230469 10.769531 24 24 24s24-10.769531 24-24v-16h32v16c0 13.230469 10.769531 24 24 24s24-10.769531 24-24v-16h32v16c0 13.230469 10.769531 24 24 24s24-10.769531 24-24v-16h32v16c0 13.230469 10.769531 24 24 24s24-10.769531 24-24v-16h32c13.230469 0 24 10.769531 24 24v40h-400v-40c0-13.230469 10.769531-24 24-24zm440 144h16v16h-16zm-80 0h64v16h-64zm80 32h16v16h-16zm-80 0h64v16h-64zm80 32h16v16h-16zm-80 0h64v16h-64zm80 32h16v16h-16zm-80 0h64v16h-64zm80 32h16v16h-16zm-80 0h64v16h-64zm0 0" fill="url(#a)"/></svg>