<svg id="Слой_1" data-name="Слой 1" xmlns="http://www.w3.org/2000/svg" xmlns:xlink="http://www.w3.org/1999/xlink" viewBox="0 0 70 62.1"><defs><style>.cls-1{fill:url(#Безымянный_градиент_2);}</style><linearGradient id="Безымянный_градиент_2" x1="35.66" y1="4.7" x2="35.66" y2="66.79" gradientTransform="matrix(1, 0, 0, -1, 0, 71.5)" gradientUnits="userSpaceOnUse"><stop offset="0" stop-color="#9f2fff"/><stop offset="1" stop-color="#0bb1d3"/></linearGradient></defs><path class="cls-1" d="M20.66,29.54H7.44V58.9H20.66a17.93,17.93,0,0,0,21,0H54.86V29.54H41.64a18,18,0,0,0-21,0ZM9.7,31.8h8.36a18,18,0,0,0,0,24.84H9.7Zm5.64,12.42A15.81,15.81,0,1,1,31.15,60,15.82,15.82,0,0,1,15.34,44.22ZM52.6,56.64H44.23a18,18,0,0,0,0-24.84H52.6ZM44.7,44.22a13.6,13.6,0,0,1-3.14,8.67l-1.74-1.45a11.19,11.19,0,0,0,2.55-6.09H39.05V43.09h3.33A11.31,11.31,0,0,0,32.28,33v3.33H30V33a11.28,11.28,0,0,0-6.09,2.56l-1.45-1.74A13.55,13.55,0,0,1,44.7,44.22ZM38.37,52.9l1.44,1.73A13.54,13.54,0,0,1,20.74,35.55L22.47,37a11.27,11.27,0,0,0-2.55,6.09h3.32v2.26H19.91A11.32,11.32,0,0,0,30,55.45V52.12h2.26v3.33A11.34,11.34,0,0,0,38.37,52.9ZM32.28,38.58v4.51h2.25v2.26H30V38.58ZM61.63,55.51H59.37v9H2.92V23.9H59.37v6.77h2.26V16A5.65,5.65,0,0,0,56,10.35H51.47V8.09a3.39,3.39,0,0,0-6.77,0v2.26H40.18V8.09a3.39,3.39,0,0,0-6.78,0v2.26H28.89V8.09a3.39,3.39,0,0,0-6.78,0v2.26H17.6V8.09a3.39,3.39,0,0,0-6.78,0v2.26H6.31A5.66,5.66,0,0,0,.66,16V66.8h61ZM47,8.09a1.13,1.13,0,1,1,2.26,0v6.78a1.13,1.13,0,1,1-2.26,0Zm-11.29,0a1.13,1.13,0,0,1,2.26,0v6.78a1.13,1.13,0,0,1-2.26,0Zm-11.29,0a1.13,1.13,0,1,1,2.26,0v6.78a1.13,1.13,0,0,1-2.26,0Zm-11.29,0a1.13,1.13,0,1,1,2.26,0v6.78a1.13,1.13,0,0,1-2.26,0ZM6.31,12.61h4.51v2.26a3.39,3.39,0,0,0,6.78,0V12.61h4.51v2.26a3.39,3.39,0,0,0,6.78,0V12.61H33.4v2.26a3.39,3.39,0,0,0,6.78,0V12.61H44.7v2.26a3.39,3.39,0,0,0,6.77,0V12.61H56A3.39,3.39,0,0,1,59.37,16v5.64H2.92V16A3.39,3.39,0,0,1,6.31,12.61ZM68.4,32.93h2.26v2.26H68.4Zm-11.29,0h9v2.26h-9ZM68.4,37.45h2.26v2.26H68.4Zm-11.29,0h9v2.26h-9ZM68.4,42h2.26v2.26H68.4ZM57.11,42h9v2.26h-9ZM68.4,46.48h2.26v2.26H68.4Zm-11.29,0h9v2.26h-9ZM68.4,51h2.26v2.25H68.4ZM57.11,51h9v2.25h-9Z" transform="translate(-0.66 -4.71)"/></svg>