<svg id="Layer_1" data-name="Layer 1" xmlns="http://www.w3.org/2000/svg" width="70mm" height="70mm" viewBox="0 0 198.43 198.43"><defs><style>.cls-1{fill:#fff;}.cls-2{fill:#0077ca;}.cls-3{fill:none;stroke:#0077ca;stroke-miterlimit:10;stroke-width:9px;fill-rule:evenodd;}</style></defs><rect class="cls-1" x="4.5" y="4.5" width="189.42" height="189.42" rx="18.18"/><path class="cls-2" d="M175.75,9a13.7,13.7,0,0,1,13.68,13.68V175.75a13.7,13.7,0,0,1-13.68,13.68H22.68A13.7,13.7,0,0,1,9,175.75V22.68A13.7,13.7,0,0,1,22.68,9H175.75m0-9H22.68A22.74,22.74,0,0,0,0,22.68V175.75a22.75,22.75,0,0,0,22.68,22.68H175.75a22.75,22.75,0,0,0,22.68-22.68V22.68A22.75,22.75,0,0,0,175.75,0Z" transform="translate(0 0)"/><path class="cls-3" d="M101.46,23.41l27.13,27.14-9.21,9.21L91.74,32.12V56.25l18.42,18.59c-2.83,5.73-3.89,5.88-9.82,8.41a3.14,3.14,0,0,0-4.43,0L21.79,156h0c-6.43,14.37,2.88,23.8,15.78,19.72L113.62,101a3.14,3.14,0,0,0,0-4.43c2.39-6.2,2.62-6.71,8.55-9.68l22.9,22.91,12.16-12.16L137.11,77.49l9.21-9.22L166.44,88.4,179,75.82,126.6,23.41Z" transform="translate(0 0)"/></svg>