<svg xmlns="http://www.w3.org/2000/svg" xmlns:xlink="http://www.w3.org/1999/xlink" viewBox="0 0 185.59 228.12"><defs><style>.cls-1{fill:url(#Градієнт_без_назви_48);}.cls-2{fill:url(#Градієнт_без_назви_48-2);}.cls-3{fill:#1d1a1a;}.cls-4{fill:none;stroke-miterlimit:10;stroke-width:8.04px;stroke:url(#Градієнт_без_назви_37);}.cls-5{fill:url(#Градієнт_без_назви_48-3);}</style><linearGradient id="Градієнт_без_назви_48" x1="112.61" y1="209.7" x2="112.61" y2="148.36" gradientUnits="userSpaceOnUse"><stop offset="0.12" stop-color="#006bc6"/><stop offset="0.4" stop-color="#0079cb"/><stop offset="0.91" stop-color="#009ed9"/><stop offset="1" stop-color="#00a5dc"/></linearGradient><linearGradient id="Градієнт_без_назви_48-2" x1="151.66" y1="209.7" x2="151.66" y2="148.36" xlink:href="#Градієнт_без_назви_48"/><linearGradient id="Градієнт_без_назви_37" x1="22.8" y1="-7.18" x2="162.79" y2="235.3" gradientUnits="userSpaceOnUse"><stop offset="0.13" stop-color="#005dbe"/><stop offset="0.26" stop-color="#005fbf"/><stop offset="0.31" stop-color="#0066c1"/><stop offset="0.34" stop-color="#0071c6"/><stop offset="0.37" stop-color="#0082cd"/><stop offset="0.39" stop-color="#0098d5"/><stop offset="0.41" stop-color="#00afde"/><stop offset="0.52" stop-color="#00a9dc"/><stop offset="0.67" stop-color="#0099d5"/><stop offset="0.84" stop-color="#007ecb"/><stop offset="1" stop-color="#005dbe"/></linearGradient><linearGradient id="Градієнт_без_назви_48-3" x1="71.96" y1="210.99" x2="71.96" y2="149.65" xlink:href="#Градієнт_без_назви_48"/></defs><g id="Слой_2" data-name="Слой 2"><g id="Шар_1" data-name="Шар 1"><path class="cls-1" d="M117,173.16V159.93h-8.76v8.24H96.58V156.25l8.58-7.89h14.9l8.59,7.89v16.12l-6.75,6.14,7.89,6.31v15.94l-9.29,8.94H104.73l-9.29-8.94V190h12.79v8.15H117v-13.4H106.74V173.16Z"/><path class="cls-2" d="M168.14,180.26l-9.29,8.94H148v20.5H135.19V148.36h23.66l9.29,8.94ZM148,159.93v17.7h7.36v-17.7Z"/><polygon class="cls-3" points="6.03 153.63 78.63 81.03 86.41 81.03 96.21 71.23 75.03 50.05 75.03 25.76 104.71 55.45 114.3 45.86 85.03 16.59 111.78 16.59 168.37 73.18 155.12 86.43 132.76 64.07 123.09 73.74 145.45 96.1 133.39 108.16 108.02 82.79 98.35 92.46 98.35 100.62 6.34 192.63 6.03 153.63"/><rect class="cls-4" x="4.02" y="4.02" width="177.55" height="220.08" rx="10.14"/><path class="cls-5" d="M64.4,149.65l-8.85,8.85V211h11.5V190.61H75V211H88.36V149.65ZM75,179H67.2V160.67H75Z"/></g></g></svg>